<svg width="130" height="58" viewBox="0 0 130 58" fill="none" xmlns="http://www.w3.org/2000/svg">
<path fill-rule="evenodd" clip-rule="evenodd" d="M0 13.2267H40.93C43.53 9.17 46.9467 5.95333 51.1867 3.57C55.4233 1.19 60.0233 0 64.99 0C69.9533 0 74.5633 1.19334 78.8167 3.58334C83.07 5.97334 86.4833 9.19 89.05 13.2267H130L125.947 17.28H91.2833C91.9967 18.8167 92.5367 20.42 92.9033 22.0933H121.25L117.197 26.15H93.53C93.6 27.1967 93.6333 27.99 93.6333 28.53C93.6333 29.07 93.6 29.8667 93.53 30.9133H112.437L108.38 34.9667H92.9033C92.5367 36.6567 91.9967 38.2533 91.2833 39.7567H103.547L99.44 43.81H89.05C86.4833 47.8533 83.07 51.08 78.8167 53.4833C74.5633 55.8867 69.9533 57.0867 64.99 57.0867C60.0233 57.0867 55.4233 55.89 51.1867 53.4967C46.9467 51.1 43.53 47.87 40.93 43.81H30.56L26.53 39.7567H38.77C38.0633 38.2533 37.53 36.6567 37.1667 34.9667H21.7L17.5933 30.9133H36.4967C36.4267 29.8667 36.3933 29.07 36.3933 28.53C36.3933 27.99 36.4267 27.1967 36.4967 26.15H12.88L8.77333 22.0933H37.1667C37.53 20.42 38.0633 18.8167 38.77 17.28H4.05333L0 13.2267ZM42.4867 19.03C41.1967 22.0533 40.55 25.22 40.55 28.53C40.55 31.84 41.1967 35.01 42.4867 38.0333C43.7767 41.0533 45.5167 43.6633 47.7033 45.8567C49.89 48.05 52.49 49.7933 55.5033 51.09C58.5167 52.3867 61.68 53.0333 64.99 53.0333C68.2967 53.0333 71.4633 52.3867 74.4867 51.09C77.5067 49.7933 80.1133 48.05 82.3 45.8567C84.4867 43.6633 86.2267 41.0533 87.53 38.0333C88.83 35.01 89.48 31.84 89.48 28.53C89.48 25.22 88.83 22.0533 87.53 19.03C86.2267 16.0067 84.4867 13.4033 82.3 11.2167C80.1133 9.03334 77.5067 7.29334 74.4867 5.99667C71.4633 4.7 68.2967 4.05334 64.99 4.05334C61.68 4.05334 58.5167 4.7 55.5033 5.99667C52.49 7.29334 49.89 9.03334 47.7033 11.2167C45.5167 13.4033 43.7767 16.0067 42.4867 19.03ZM45.4867 34.9667H48.02L47.9467 25.3633L51.0133 34.9667L53.83 34.95L56.84 25.4133V34.9667H59.5433V22.0933L55.7367 22.09L52.47 32.3567L49.14 22.1033L45.4867 22.0933V34.9667ZM62.4567 34.9667H65.14V22.0933H62.4567V34.9667ZM68.0533 34.9667H70.6367V25.6933L75.7767 34.9667H78.8933V22.0933H76.36V31.42L71.22 22.0933H68.0533V34.9667ZM81.8567 34.9667H84.49V22.0933H81.8567V34.9667Z" fill="#222222"/>
</svg>
